<?xml version="1.0" encoding="utf-8"?>
<svg viewBox="149.35 133.785 238.192 120.83" xmlns="http://www.w3.org/2000/svg" xmlnsBx="https://boxy-svg.com">
  <defs>
    <linearGradient gradientUnits="userSpaceOnUse" x1="-311.503" y1="-923.688" x2="-311.503" y2="-685.548" id="gradient-1">
      <stop offset="0" style="stop-color: rgba(211, 238, 124, 1)"/>
      <stop offset="1" style="stop-color: rgba(181, 226, 34, 1)"/>
    </linearGradient>
    <linearGradient gradientUnits="userSpaceOnUse" x1="330.471" y1="196.493" x2="330.471" y2="238.903" id="gradient-0" gradientTransform="matrix(0.409401, -0.912354, 1.228327, 0.551188, -95.937894, 402.050771)">
      <stop offset="0" style="stop-color: rgb(170, 234, 145);"/>
      <stop offset="1" style="stop-color: rgb(28, 187, 201);"/>
    </linearGradient>
  </defs>
  <path d="M -311.503 -923.688 L -274.219 -685.548 L -348.787 -685.548 L -311.503 -923.688 Z" style="fill-opacity: 0.85; stroke-linecap: round; stroke-miterlimit: 1; fill: url(#gradient-1);" transform="matrix(0, 1, -1, 0, -536.197632, 482.571747)" bxShape="triangle -348.787 -923.688 74.568 238.14 0.5 0 1@117fd998"/>
  <path d="M 386.071 923.688 L 423.355 1161.828 L 348.787 1161.828 L 386.071 923.688 Z" style="fill: rgb(255, 255, 255);" transform="matrix(0, 1, 1, 0, -774.2854, -168.740509)" bxShape="triangle 348.787 923.688 74.568 238.14 0.5 0 1@903560d3"/>
  <path d="M 281.173 227.215 L 281.173 208.639 L 285.142 208.639 L 292.459 220.087 L 292.594 220.087 L 292.594 208.639 L 296.266 208.639 L 296.266 227.215 L 292.621 227.215 L 284.98 215.146 L 284.845 215.146 L 284.845 227.215 Z" style="fill: url(#gradient-0); white-space: pre; paint-order: stroke markers;"/>
  <path d="M 300.673 227.215 L 300.673 208.639 L 313.363 208.639 L 313.363 211.771 L 304.507 211.771 L 304.507 216.28 L 312.094 216.28 L 312.094 219.412 L 304.507 219.412 L 304.507 224.083 L 313.363 224.083 L 313.363 227.215 Z" style="fill: url(#gradient-0); white-space: pre; paint-order: stroke markers;"/>
  <path d="M 320.775 227.215 L 320.775 211.879 L 315.402 211.879 L 315.402 208.639 L 329.982 208.639 L 329.982 211.879 L 324.609 211.879 L 324.609 227.215 Z" style="fill: url(#gradient-0); white-space: pre; paint-order: stroke markers;"/>
  <path d="M 339.992 227.431 Q 337.94 227.431 336.563 227.161 Q 335.186 226.891 334.322 226.243 Q 333.458 225.595 333.013 224.515 Q 332.567 223.435 332.405 221.815 Q 332.243 220.195 332.243 217.927 Q 332.243 215.659 332.405 214.039 Q 332.567 212.419 333.013 211.339 Q 333.458 210.259 334.322 209.611 Q 335.186 208.963 336.563 208.693 Q 337.94 208.423 339.992 208.423 Q 340.775 208.423 341.626 208.477 Q 342.476 208.531 343.259 208.639 Q 344.042 208.747 344.582 208.882 L 344.582 211.825 Q 343.853 211.744 343.178 211.677 Q 342.503 211.609 341.923 211.582 Q 341.342 211.555 340.937 211.555 Q 339.56 211.555 338.669 211.663 Q 337.778 211.771 337.252 212.109 Q 336.725 212.446 336.482 213.135 Q 336.239 213.823 336.158 214.984 Q 336.077 216.145 336.077 217.927 Q 336.077 219.682 336.158 220.857 Q 336.239 222.031 336.482 222.72 Q 336.725 223.408 337.252 223.746 Q 337.778 224.083 338.669 224.191 Q 339.56 224.299 340.937 224.299 Q 341.828 224.299 342.881 224.218 Q 343.934 224.137 344.69 224.029 L 344.69 227.026 Q 344.096 227.134 343.286 227.229 Q 342.476 227.323 341.626 227.377 Q 340.775 227.431 339.992 227.431 Z" style="fill: rgb(132, 132, 132); white-space: pre;"/>
  <path d="M 346.381 227.215 L 352.672 208.639 L 357.802 208.639 L 364.093 227.215 L 360.178 227.215 L 358.801 223.111 L 351.538 223.111 L 350.215 227.215 Z M 352.51 220.006 L 357.802 220.006 L 355.237 212.122 L 355.075 212.122 Z" style="fill: rgb(132, 132, 132); white-space: pre;"/>
  <path d="M 366.69 227.215 L 366.69 208.639 L 375.303 208.639 Q 377.031 208.639 378.125 209.071 Q 379.218 209.503 379.812 210.3 Q 380.406 211.096 380.636 212.23 Q 380.865 213.364 380.865 214.795 Q 380.865 216.118 380.663 217.239 Q 380.46 218.359 379.866 219.196 Q 379.272 220.033 378.152 220.492 Q 377.031 220.951 375.195 220.951 L 370.524 220.951 L 370.524 227.215 Z M 370.524 217.819 L 373.683 217.819 Q 374.844 217.819 375.519 217.698 Q 376.194 217.576 376.518 217.252 Q 376.842 216.928 376.937 216.334 Q 377.031 215.74 377.031 214.795 Q 377.031 213.85 376.937 213.256 Q 376.842 212.662 376.532 212.325 Q 376.221 211.987 375.573 211.866 Q 374.925 211.744 373.791 211.744 L 370.524 211.744 Z" style="fill: rgb(132, 132, 132); white-space: pre;"/>
  <path d="M 171.061 187.7 Q 167.686 187.7 165.324 187.25 Q 162.961 186.8 161.409 185.743 Q 159.856 184.685 159.001 182.885 Q 158.146 181.085 157.808 178.363 Q 157.471 175.64 157.471 171.86 Q 157.471 168.08 157.808 165.358 Q 158.146 162.635 159.023 160.835 Q 159.901 159.035 161.454 157.978 Q 163.006 156.92 165.346 156.47 Q 167.686 156.02 171.061 156.02 Q 172.546 156.02 174.369 156.155 Q 176.191 156.29 177.991 156.493 Q 179.791 156.695 181.321 157.01 L 181.321 161.915 Q 179.746 161.69 178.261 161.555 Q 176.776 161.42 175.561 161.33 Q 174.346 161.24 173.536 161.24 Q 170.971 161.24 169.261 161.353 Q 167.551 161.465 166.471 161.96 Q 165.391 162.455 164.829 163.58 Q 164.266 164.705 164.041 166.708 Q 163.816 168.71 163.816 171.86 Q 163.816 174.65 163.974 176.54 Q 164.131 178.43 164.559 179.645 Q 164.986 180.86 165.819 181.513 Q 166.651 182.165 167.979 182.39 Q 169.306 182.615 171.286 182.615 Q 172.006 182.615 172.794 182.593 Q 173.581 182.57 174.279 182.525 Q 174.976 182.48 175.426 182.435 L 175.426 174.785 L 170.251 174.785 L 170.251 169.745 L 181.456 169.745 L 181.456 186.71 Q 179.926 187.025 178.036 187.228 Q 176.146 187.43 174.346 187.565 Q 172.546 187.7 171.061 187.7 Z" style="fill: rgb(132, 132, 132); white-space: pre;"/>
  <path d="M 201.785 187.34 L 201.785 180.815 L 186.485 180.815 L 186.485 176.18 L 197.87 156.38 L 204.8 156.38 L 193.37 175.595 L 201.875 175.595 L 203.585 167.09 L 208.13 167.09 L 208.13 175.595 L 212.27 175.595 L 212.27 180.815 L 208.13 180.815 L 208.13 187.34 Z" style="fill: rgb(132, 132, 132); white-space: pre;"/>
</svg>
